<svg xmlns="http://www.w3.org/2000/svg"  viewBox="0 0 64 64" width="64px" height="64px"><path d="M 30 4 C 28.783 4 27.847531 5.0782031 28.019531 6.2832031 L 28.302734 8.2636719 C 19.853734 9.2446719 15.892578 13.6 15.892578 18 C 15.892578 32.747 11.747703 40.637063 11.095703 41.789062 L 52.195312 40.373047 C 50.807313 37.334047 48.107422 29.896 48.107422 18 C 48.107422 13.599 44.146266 9.2446719 35.697266 8.2636719 L 35.980469 6.2832031 C 36.152469 5.0782031 35.217 4 34 4 L 30 4 z M 8 44 C 8 44 4 45 4 53 L 26.046875 53 C 26.547513 55.839248 29.016871 58 32 58 C 34.983129 58 37.452487 55.839248 37.953125 53 L 60 53 C 60 45 56 44 56 44 L 8 44 z"/></svg>