<?xml version="1.0" standalone="no"?>
        <!DOCTYPE svg PUBLIC "-//W3C//DTD SVG 1.1//EN" 
        "http://www.w3.org/Graphics/SVG/1.1/DTD/svg11.dtd">  <svg xmlns="http://www.w3.org/2000/svg" enable-background="new 0 0 24 24" viewBox="0 0 24 24"><path d="M12.7,12.5C12.7,12.5,12.7,12.5,12.7,12.5c-0.4-0.4-1-0.4-1.4,0l-3,3c-0.4,0.4-0.4,1,0,1.4c0.4,0.4,1,0.4,1.4,0l2.3-2.3l2.3,2.3c0.2,0.2,0.4,0.3,0.7,0.3c0.3,0,0.5-0.1,0.7-0.3c0.4-0.4,0.4-1,0-1.4L12.7,12.5z M9.7,11.5L12,9.2l2.3,2.3c0.2,0.2,0.4,0.3,0.7,0.3c0.3,0,0.5-0.1,0.7-0.3c0.4-0.4,0.4-1,0-1.4l-3-3c0,0,0,0,0,0c-0.4-0.4-1-0.4-1.4,0l-3,3c-0.4,0.4-0.4,1,0,1.4C8.7,11.8,9.3,11.8,9.7,11.5z" fill="#565656"/></svg>  